<?xml version="1.0" encoding="utf-8"?>
<!-- Generator: Adobe Illustrator 19.0.0, SVG Export Plug-In . SVG Version: 6.00 Build 0)  -->
<svg version="1.1" id="Layer_1" xmlns="http://www.w3.org/2000/svg" xmlns:xlink="http://www.w3.org/1999/xlink" x="0px" y="0px"
	 viewBox="0 401.3 960 159.7" style="enable-background:new 0 401.3 960 159.7;" xml:space="preserve">
<style type="text/css">
	.st0{fill:#BCBCBC;}
</style>
<g>
	<path class="st0" d="M0,561c0-21.8,0-43.6,0-65.5c4,0,7.9,0,11.9,0c0.3,0.3,0.8,0.8,1.2,1.2c0,0.8,0,1.7,0,2.6
		c4.2,0.7,8.3-0.3,12.6-0.4c0-0.6,0.1-1.2,0.1-1.8c1.6,0,3.1,0,4.8,0c0.1,0.2,0.3,0.6,0.6,1.4c0-11.2,0-21.9,0-32.7
		c4.9,0,9.7,0,14.7,0c0-2.1,0-4,0-6.1c3.4,0,6.7,0,10,0c0,2.8,0,5.5,0,8.4c4.2,0.2,8.4,0,12.6,0.1c0,5,0,9.9,0,14.8
		c2.4,2.4,4.7,4.7,7.1,7.1c0,3.5,0,7.1,0,10.8c1.5,0,2.9,0.1,4.3,0c1.4-0.1,2.6,0.9,4.2,0.4c0-3.6,0-7.1,0-10.8
		c-0.2-0.3-0.6-0.6-0.9-0.9c0-0.5,0-1,0-1.7c5.4,0,10.7,0,16.2,0c-0.3,0.9,0.3,1.8-0.5,2.6c-0.2,0.2-0.1,0.6-0.1,1
		c0,3.4,0,6.9,0,10.4c1.3,0,2.6,0,4,0c0-1.7,0-3.6,0-5.4c2.9,0,5.7,0,8.5,0c0,1.7,0,3.5,0,5.3c1.3,0.5,2.7,0,3.9,0.3
		c0.5,0.2,0,0.7,0.8,1c2.1-0.4,4.5,0.5,6.7,0.5c1.2-0.8,0.6-2.5,2-3c0.9,0,1.8,0,2.8,0c0-1.7,0-3.2,0-4.7c0.6-0.6,1.2-0.2,1.9-0.3
		c0.2-0.3,0.5-0.7,0.8-1c1.2,0,2.2,0,3.2,0c0.3-0.3,0.6-0.6,1-1c0.3,0,0.8-0.1,1,0.1c0.4,0.2,0.6,0.7,0.8,1.2
		c0.5,1.1,0.4,2.2,0.4,3.3c0,1.3,0,2.5,0,3.8c0.7,0.2,1.3,0.2,2,0c0-4.8,0-9.6,0-14.5c3.3,0,6.6-0.2,9.9,0.1
		c1.8,0.2,3.5,0.8,5.3,1.2c1.2,0.3,2.5,0.5,3.7,0.8c2,0.5,4,0.8,6,1.4c1.2,0.3,2.5,0.5,3.8,0.6c0.5,0.1,0.7,0.4,1.1,0.7
		c0,2.7,0,5.4,0,8.2c0.8,0.3,1.5,0.2,2.3,0.2c5.1-0.1,10.1,1.1,15.2,0.4c0.5,1.1,0,2.1,0.4,3.1c0.7,0,1.4,0,2,0
		c0.7,0.4,0.9,0.9,1,1.5c0.6,0,1.1,0,1.8,0c0-5.8,0-11.6,0-17.3c1.2-1.2,2.3-2.4,3.5-3.5c1.1-1,1.9-2.3,3.7-2.9c1.6,0,3.5,0.1,5.4,0
		c1.3,0,2.3,0.5,3.2,1.4c1.3,1.3,2.6,2.6,3.9,3.9c0,3.9,0,7.7,0,11.8c3.2,0.1,6.3,0,9.5,0s6.4,0,9.6,0c0,4.5,0,9,0,13.5
		c1.4,0,2.7,0,4.1,0c0-6.1,0-12.2,0-18.3c0.3-0.3,0.4-0.4,0.7-0.7c3.8,0,7.8,0,11.6,0c0.5-0.6,0-1.7,1.3-2.1c2.6,0,5.5,0,8.5,0
		c0-2.2,0-4.2,0-6.2c0.1-0.2,0.2-0.2,0.3-0.3c0.1,0,0.1-0.1,0.2-0.1c4.2,0,8.4,0,12.5,0c0.3,0.3,0.5,0.5,0.7,0.7c0,2.2,0,4.4,0,6.8
		c4.7,0,9.4,0,14.2,0c0,1.2,0,2.3,0,3.5c1.8,0,3.6,0,5.5,0c0-2.9,0-5.9,0-8.8c2.6-0.6,5.1-0.9,7.6-1.8c0-1.4,0-2.8,0-4.2
		c1-0.7,1-0.7,2.6-0.8c0-1.3,0-2.6,0-3.9c0-2.7,0-5.4,0-8.1c0-0.7,0-1.4,0.5-2.1c1.1-1.6,2-3.2,3-4.8c0.2-0.3,0.5-0.5,0.7-0.8
		c1,0,2,0,3.1,0c1.9,1.7,3.2,4.1,4.8,6.4c0,4.3,0,8.7,0,13.3c1.2,0,2.2,0,3.5,0c0,8.1,0,16.1,0,24.1c0.9,0.3,1.5,0.1,2-0.6
		c-0.2-1,0.4-2.2,0.5-3.3s-0.1-2.3,0.8-3.4c1.4,0,3,0,4.5,0c0.6-0.5,0.1-1.1,0.5-1.5c0.7,0,1.5,0,2.3,0c0-5.2,0-10.3,0-15.5
		c1-0.5,2,0,3.1-0.3c0-5.9,0-11.9,0-17.8c1-0.6,1.9-1,3.1-0.7c0-3.8,0-7.4,0-11c1.3-0.7,2.4-1.6,3.2-2.7c1.9,0,3.7,0,5.6,0
		c0.7,0.7,1.4,1.4,2.2,2.3c0,3.4,0,7,0,10.5c0.6,0.5,1.2,0.2,1.8,0.3c0.8,0.9,1.7,1.8,2.7,2.9c0,5.2,0,10.6,0,16
		c0.8,0.5,1.7,0,2.6,0.4c0,7.8,0,15.6,0,23.3c0.6,0.4,1.2,0.2,2,0.3c0-1.3,0-2.6,0-4c2.1,0,4,0,6.1,0c0-5.8,0-11.4,0-17.2
		c5.6,0,11.1,0,16.5,0c0.2,0.2,0.5,0.5,0.7,0.7c0,4.2,0,8.4,0,12.7c1,0,1.9,0,3,0c0-8.6,0-17.3,0-25.8c0.6-0.6,1.4,0,2-0.5
		c0-1.2,0-2.4,0-3.6c0.4-0.5,0.9-0.2,1.3-0.3c0.1-0.1,0.2-0.1,0.2-0.2c-0.1-2.8,0.6-5.5,0.7-8.3c1,0.5,0.3,1.3,0.4,1.9
		c0.1,0.7,0.1,1.5,0,2.3c-0.1,0.7,0.7,1.1,0.5,1.8c-0.1,0.7,0,1.5,0,2.3c0.4,0.5,1,0,1.4,0.4c0.3,0.2-0.1,0.7,0.3,0.8
		c1.2,0,2.5,0,3.7,0c0.5-2.2-0.5-4.5,0.9-6.6c0.6,2.2-0.5,4.5,0.9,6.6c0.8,0,1.7,0,2.7,0c0,5.4,0,10.6,0,16.1c4.9,0,9.7,0,14.7,0
		c0,1.7,0,3.3,0,5c2.2,0,4.2,0,6.2,0c1.6,1.6,3,3.1,4.3,4.4c0.6,0.4,1,0.2,1.5,0.2c0-8,0-15.9,0-23.9c1.5-0.5,2.9-0.5,4.3-0.9
		c2.2-0.5,4.4-0.2,6.6-0.4c1.1-0.1,2,0.6,3.1,0.6c1,0,2.2-0.5,3.1,0.5c0.1,0.1,0.3,0,0.5,0c2.2-0.3,4.2,0.7,6.4,0.6
		c1.1-0.1,2.1,0.7,3.2,0.4c0.3,0.3,0.5,0.5,0.7,0.7c0,4.2,0,8.4,0,12.9c2.6,0,5.1,0,7.6,0c1,0,2.7,0.6,3.6,1.3c0,2.3,0,4.8,0,7.2
		c1.2,0,2.2,0,3.4,0c0-8.8,0-17.6,0-26.7c1.5,0.2,2.8-0.6,4.3-0.6c1.4,0,2.9,0,4.3,0c3.7,0.1,7.4-0.9,11.1-0.5
		c0.5,0.1,1-0.1,1.5,0.2c0,2.9,0,5.8,0,8.8c0.8,0,1.5,0,2.6,0c2.4,2.4,4.9,4.9,7.4,7.4c0-0.8,0-1.7,0-2.7c6.8,0,13.5,0,20.2,0
		c0.1,0.4,0.1,0.8,0.2,1.3c3.8,0,7.5,0,11.5,0c0,1.1,0,2,0.1,3c0,1,0,2,0,3.1c0.8,0,1.6,0,2.5,0c0-1.9,0-3.9,0-5.9c2.6,0,5,0,7.4,0
		c0.8,1,0.4,2.4,0.8,3.4c0.4,1.1,0.3,2.2,0.5,3.5c1.1,0,2.2,0,3.4,0c0,4.9,0,9.7,0,14.6c1.8,0,3.6,0,5.5,0c0.2,1.3,0.1,2.5,0.1,3.8
		c0,1.2,0,2.5,0,3.8c3.2,0,6.3,0,9.5,0c0-6.7,0-13.5,0-20.2c1.1-1.1,2-2,3-3c2.6,0,5.3,0,7.9,0c0.9,0.9,1.8,1.8,2.8,2.8
		c0,2.7,0,5.4,0,8c0.3,0.5,0.8,0.1,1,0.9c0,3.2,0,6.8,0,10.3c0.5,0.3,0.9,0.2,1.4,0.1c0-5.8,0-11.6,0-17.2c0.6-0.7,1.4-0.1,2-0.5
		c0-1.5,0-3.1,0-4.8c5.7,0,11.3,0,16.7,0c1.8-1.8,3.5-3.5,5.1-5.1c3.2,0,6.3,0,9.5,0c0,4.4,0,8.9,0,13.3c0.1,0.1,0.2,0.2,0.3,0.2
		s0.1,0.1,0.2,0.1c3.2,0,6.4,0,9.6,0c0,5.2,0,10.3,0,15.3c0.5,0.5,1,0.3,1.5,0.2c0-4.8,0-9.7,0-14.4c1.6-3.2,3.1-6.1,4.6-9.1
		c1.2,0,2.3,0,3.3,0c0.1,0.3,0.2,0.7,0.4,0.9c1.9,2.3,3.9,4.6,5.9,6.9c0.8,0.9,1,1.8,1,2.9c0,4.6,0,9.2,0,13.8
		c0.4,0.4,0.9,0.2,1.3,0.3c0.1-0.1,0.2-0.1,0.2-0.2c0-8.1,0-16.3,0-24.5c5.1,0,10.1,0,15.2,0c0-1.4,0-2.7,0-4.1c4.4,0,8.7,0,13.2,0
		c0-0.9,0.1-1.7,0-2.5c-0.2-1.9,0.8-3.7,0.6-5.6s0-3.9,0-5.8s0-3.8,0-5.8c0.8,0.4,0.5,1,0.5,1.4c0.1,4.3,0.8,8.6,0.5,12.9
		c0.8,1.7,0.4,3.5,0.5,5.4c0.5,0,0.9,0.1,1.4,0.1c0,1.3,0,2.6,0,3.8c1.9,0.4,3.6,0.7,5.4,1.1c-0.1,0,0,0,0.1-0.1s0.1-0.1,0.1-0.2
		c0-7.8,0-15.6,0-23.4c2.1-4.9,4.2-9.7,6.3-14.6c0.5,0,1.3,0,2.2,0c2.7,4.6,4.5,9.9,7.2,15.1c0,11.5,0,23.3,0,35.2
		c1.2,0,2.2,0,3.4,0c0-24,0-47.9,0-71.7c0.6-1.2,1.8-1.2,2.6-1.4c2.2-0.5,4.4-1.2,6.6-1.9c3.1-1,4-1,6.8,0.3c2.1,0.9,4.2,2,6.5,2.5
		c0.3,0.1,0.5,0.5,0.8,0.8c0,24.7,0,49.5,0,74.3c0.8,0,1.6,0,2.4,0c0-3.8,0-7.5,0-11.2c0.6-0.7,1.4-0.1,2-0.5c0-2,0-4.1,0-6.3
		c3.6,0,7.1,0,10.6,0c0,2.1,0,4.2,0,6.4c1.6,0,3.1,0,4.5,0c2,0,4-0.1,6.1,0c1.8,0.1,3.6-0.5,5.4,0.4c1.5,0.8,3.3,0.9,4.8,1.9
		c0.5,0.3,1,0,1.5,0.4c0,4.9,0,9.9,0,14.9c0.9,0,1.7,0,2.6,0c0-4.5,0-8.9,0-13.4c2,0,3.9,0,5.9,0c0.4,0.8-0.1,1.9,0.3,2.8
		c0.6,0.3,1.1,0.1,1.7,0.1c0.5-0.4,0-1,0.4-1.4c1.7,0,3.4,0,5.3,0c0,0.9,0,1.8,0,2.8c1,0,2,0,3.1,0c0-2.7,0-5.5,0-8.4
		c2.6,0,5,0,7.6,0c0-1.9,0-3.7,0-5.5c1.1,0,2.2,0,3.4,0c1.4,1.7,2,3.9,2.8,6c1.4,0,2.8,0,4.1,0c0.1,0.1,0.1,0.1,0.2,0.2
		c0,0.1,0.1,0.1,0.1,0.2c0,4,0,8.1,0,12.2c1,0,1.9,0,2.7,0c0.3,0.3,0.6,0.6,0.9,0.9c0,0.6,0,1.4,0,2.2c2.2,0,4.2,0,6.4,0
		c0-6.1,0-12.3,0-18.3c1.2-1.2,2.2-2.2,3.3-3.3c2.5,0,5,0,7.4,0c1,1,1.9,1.9,2.9,2.9c0,2.2,0,4.5,0,7c1.1,0,2.3,0,3.5,0
		c0-1.1,0-2.1,0-3.4c2.1,0,4,0,6.1,0c0-8,0-15.8,0-23.5c1.1-1,1.9-2.2,3.4-2.7c3.5-0.5,6.9,0.1,10.2,2c0,4.6,0,9.2,0,14
		c1.9,0,3.7,0,5.6,0c0,3.1,0,6,0,9.1c2.8,1.4,5.9,1.8,8.6,3.2c0,1.1,0,2.2,0,3.2c0.4,0.1,0.7,0.3,1,0.4c0,1.7,0,3.5,0,5.2
		c0.5,0.3,0.9,0.2,1.4,0.2c0-8.1,0-16.3,0-24.3c1.2-1.1,2.3-2.2,3.5-3.3c1.7,0,3.5,0,5.2,0c0.8,0.8,1.7,1.7,2.4,2.4
		c0.8,0,1.4,0,2.1,0c0-1.6,0.6-3,1-4.4c4.5,0,8.8,0,13.1,0c0,0.6,0.1,1.2,0.1,1.9c2,0,4,0,5.9,0c0.1-0.5,0.1-0.9,0.1-1.3
		c3.6,0,7.2,0,11,0c0,8.8,0,17.7,0,26.6c0.9,0,1.6,0,2.6,0c0-2.5,0-4.9,0-7.5c2.1,0,4,0,6,0c0,1.1,0,2.2,0,3.2
		c0.6,0.6,1.4,0.1,2,0.5c0,1,0,2.1,0,3.2c0.8,0.5,1.7,0,2.6,0.4c0,1.2,0,2.4,0,3.6c0.4,0.5,0.9,0.2,1.3,0.3c0.1-0.1,0.2-0.1,0.2-0.2
		c0-4.3,0-8.5,0-12.9c4.8,0,9.4,0,14.2,0c0,8.3,0,16.7,0,25.1c1.8,0,3.3,0,5.1,0c0-2.8,0-5.6,0-8.5c1.1,0,2,0,3,0
		c0-7.4,0-14.7,0-21.9c1.3-1.3,2.6-2.6,3.9-3.9c2.2,0,4.4,0,6.6,0c1.2,1.2,2.4,2.5,3.8,3.9c0,7.1,0,14.4,0,21.8c1.7,0,3.2,0,4.7,0
		c0.3,0.3,0.6,0.6,0.8,0.8c0,5.4,0,10.8,0,16.3c1.3,0,2.6,0,3.9,0c1.3,1.6,0.4,3.4,0.8,5.1c0.9,0,1.8,0,2.8,0c0,11,0,21.8,0,32.7
		C640,561,320,561,0,561z"/>
</g>
</svg>
